# xmcd
#
# Track frame offsets:
#	150
#	10914
#	20951
#	29905
#	41367
#	55524
#	66926
#	78078
#	91455
#	101963
#	114777
#	126574
#
# Disc length: 1836 seconds
#
# Revision: 0
# Processed by: cddbd v1.5.2PL0 Copyright (c) Steve Scherf et al.
# Submitted via: audiograbber 1.83.01
#
DISCID=9f072a0c
DTITLE=Nashville Gamblers,  Westward Wanderers - Original Country and Western Mus
DTITLE=ic
DYEAR=1900
DGENRE=Country
TTITLE0=Maggie 
TTITLE1=Corina, Corina
TTITLE2=Footprints In The Snow
TTITLE3=In The Streets Of Laredo 
TTITLE4=Down In The Valley 
TTITLE5=That Tavern In Town 
TTITLE6=Goin' Up Cripple Creek
TTITLE7=Red River Valley
TTITLE8=Dancin' On The Mountain 
TTITLE9=In The Pines 
TTITLE10=Ol' Dan
TTITLE11=Joe Clark
EXTD=
EXTT0=
EXTT1=
EXTT2=
EXTT3=
EXTT4=
EXTT5=
EXTT6=
EXTT7=
EXTT8=
EXTT9=
EXTT10=
EXTT11=
PLAYORDER=
